<?xml version="1.0" encoding="UTF-8"?>
<svg xmlns="http://www.w3.org/2000/svg" xmlns:xlink="http://www.w3.org/1999/xlink" width="193pt" height="193pt" viewBox="0 0 193 193" version="1.1">
<g id="surface1">
<path style=" stroke:none;fill-rule:nonzero;fill:rgb(13.699341%,12.199402%,12.5%);fill-opacity:1;" d="M 19.035156 145.058594 L 33.234375 154.894531 L 65.527344 147.933594 L 82.792969 161.640625 L 63.660156 175.570313 L 77.308594 184.496094 L 147.085938 131.042969 L 136.785156 120.558594 L 19.035156 145.058594 "/>
<path style=" stroke:none;fill-rule:nonzero;fill:rgb(100%,100%,100%);fill-opacity:1;" d="M 83.160156 144.058594 L 94.472656 153.144531 L 117.207031 136.617188 Z M 83.160156 144.058594 "/>
<path style=" stroke:none;fill-rule:nonzero;fill:rgb(13.699341%,12.199402%,12.5%);fill-opacity:1;" d="M 15.234375 96.714844 L 67.566406 8.746094 C 82.535156 49.984375 73.414063 77.1875 73.414063 77.1875 C 61.8125 115.398438 39.382813 133.339844 39.382813 133.339844 C 32.8125 138.804688 26.097656 136.53125 23.71875 132.652344 C 20.984375 128.199219 19.871094 121.488281 19.871094 121.488281 C 19.1875 118.855469 15.234375 96.714844 15.234375 96.714844 "/>
<path style=" stroke:none;fill-rule:nonzero;fill:rgb(100%,100%,100%);fill-opacity:1;" d="M 26.828125 98.574219 L 61.71875 41.503906 C 71.441406 74.839844 44.039063 109.082031 44.039063 109.082031 C 31.363281 126.160156 28.746094 110.566406 28.746094 110.566406 C 28.460938 109.171875 26.828125 98.574219 26.828125 98.574219 "/>
<path style=" stroke:none;fill-rule:nonzero;fill:rgb(13.699341%,12.199402%,12.5%);fill-opacity:1;" d="M 127.691406 35.476563 L 135.027344 25.453125 L 177.519531 103.855469 L 171.652344 115.089844 L 169.136719 112.304688 C 169.195313 116.949219 168.359375 119.09375 168.359375 119.09375 C 165.039063 130.804688 156.742188 130.269531 156.742188 130.269531 C 141.207031 130.050781 130.246094 104.410156 130.246094 104.410156 C 116.921875 76.828125 128.15625 62.476563 128.15625 62.476563 C 133.261719 56.339844 139.289063 57.09375 139.289063 57.09375 L 127.691406 35.476563 "/>
<path style=" stroke:none;fill-rule:nonzero;fill:rgb(100%,100%,100%);fill-opacity:1;" d="M 156.617188 113.988281 C 161.171875 111.609375 161.601563 99.996094 156.890625 88.296875 C 151.847656 75.761719 145.632813 68.230469 139.589844 71.082031 C 134.433594 73.507813 133.878906 84.558594 139.347656 96.003906 C 146.191406 110.335938 152.097656 116.363281 156.617188 113.988281 "/>
<path style=" stroke:none;fill-rule:nonzero;fill:rgb(13.699341%,12.199402%,12.5%);fill-opacity:1;" d="M 113.402344 58.019531 L 128.988281 49.953125 C 126.996094 63.878906 112.753906 91.613281 112.753906 91.613281 C 113.773438 92.699219 122.3125 108.78125 122.3125 108.78125 L 106.070313 116.386719 L 102.082031 109.429688 C 83.445313 136.316406 72.710938 129.824219 72.710938 129.824219 C 64.886719 127.207031 66.398438 108.539063 66.398438 108.539063 C 68.089844 91.492188 82.039063 70.917969 82.039063 70.917969 C 73.40625 55.0625 85.195313 38.371094 85.195313 38.371094 C 95.679688 21.949219 105.609375 20.539063 105.609375 20.539063 C 115.742188 18.238281 115.339844 28.671875 115.339844 28.671875 C 117.019531 43.988281 99.207031 66.464844 99.207031 66.464844 C 100.089844 70.316406 105.886719 79.179688 105.886719 79.179688 C 109.015625 74.496094 113.402344 58.019531 113.402344 58.019531 "/>
<path style=" stroke:none;fill-rule:nonzero;fill:rgb(100%,100%,100%);fill-opacity:1;" d="M 87.328125 82.054688 L 95.585938 97.832031 C 86.289063 116.019531 79.5625 108.589844 79.5625 108.589844 C 74.570313 100.359375 87.328125 82.054688 87.328125 82.054688 "/>
<path style=" stroke:none;fill-rule:nonzero;fill:rgb(100%,100%,100%);fill-opacity:1;" d="M 102.289063 34.503906 C 105.015625 35.546875 102.890625 40.976563 102.890625 40.976563 C 101.824219 46.019531 93.824219 57.09375 93.824219 57.09375 C 89.359375 49.496094 93.75 41.285156 93.75 41.285156 C 98.289063 33.34375 102.289063 34.503906 102.289063 34.503906 "/>
</g>
</svg>
