<?xml version="1.0" encoding="UTF-8"?>
<svg xmlns="http://www.w3.org/2000/svg" width="70" height="70" fill="none" viewBox="0 0 70 70">
  <path fill="#E4E4E4" d="M.424 30.82c.042.38.053.709.116 1.026.148.826.285 1.652.496 2.467.37 1.482.919 2.91 1.594 4.287a27.252 27.252 0 002.07 3.568c.052.074.126.116.2.17.053-.075.127-.128.159-.213.422-.963.844-1.937 1.266-2.91.106-.244.074-.435-.063-.657-.612-.985-1.235-1.98-1.805-2.986-.37-.645-.676-1.333-1.003-2a12.15 12.15 0 01-.486-1.154c-.042-.117-.01-.286.042-.402.37-.71.729-1.43 1.162-2.086.464-.72.834-1.524 1.499-2.107.222-.2.433-.402.75-.465a.679.679 0 01.538.095c.865.519 1.446 1.302 2.027 2.107.422.592.887 1.153 1.34 1.725.074.095.18.18.275.254.338.244.38.233.654-.095.824-.995 1.658-2 2.492-2.996.106-.127.18-.244-.01-.35-.676-.37-1.151-.941-1.616-1.524-.507-.635-.971-1.302-1.488-1.937-.433-.54-.93-.995-1.605-1.207a1.825 1.825 0 00-1.52.148.477.477 0 01-.232.085c-.148.01-.222-.064-.17-.222.011-.043.032-.074.053-.117.55-1.111.75-2.297.877-3.514.052-.572-.021-1.133-.138-1.673-.126-.561-.411-1.048-1.013-1.26-.285-.095-.57-.053-.824.053-.57.233-.94.71-1.32 1.165-.136.17-.242.36-.38.529-.03.042-.105.064-.158.085 0-.064-.02-.138 0-.19.148-.297.307-.594.475-.89.476-.826.94-1.641 1.426-2.456.137-.233.327-.424.485-.635l.602-.858c.01-.01.01-.031.021-.042.38-.445.76-.89 1.13-1.334.01-.01.02-.021.042-.032.296-.36.591-.709.887-1.069l.126-.159c.613-.593 1.225-1.196 1.837-1.789.37-.35.718-.72 1.109-1.037.686-.55 1.393-1.08 2.1-1.61.254-.19.518-.38.771-.55.338-.233.687-.444 1.024-.667.412-.264.824-.54 1.236-.794.169-.106.348-.19.527-.286.497-.254.993-.497 1.49-.762.274-.137.538-.296.812-.444.032-.022.074-.053.116-.053.58-.096 1.045-.466 1.584-.667.433-.159.876-.307 1.32-.466.137-.053.274-.116.411-.17.042-.02.084-.052.137-.063.961-.17 1.869-.572 2.819-.783.274-.064.538-.117.802-.233.285-.117.623-.106.93-.159.084-.01.158-.032.242-.042.053-.01.106 0 .159 0-.021.042-.032.095-.074.127A.443.443 0 0128.6.69c-.232.074-.465.127-.686.212-.697.243-1.404.487-2.09.762a39.44 39.44 0 00-2.08.879c-.687.317-1.362.677-2.038 1.026-.053.022-.116.096-.105.149 0 .053.073.095.126.127.507.328 1.024.635 1.51.984.507.36 1.003.73 1.478 1.133A37.69 37.69 0 0126.5 7.625c.633.625 1.256 1.26 1.848 1.916.844.942 1.646 1.916 2.46 2.89.38.445.738.91 1.097 1.376.116.149.233.19.412.096.57-.307 1.14-.614 1.72-.89 1.014-.476 2.038-.942 3.062-1.386a75.85 75.85 0 012.703-1.09c.612-.234 1.256-.424 1.869-.668a15.506 15.506 0 001.594-.74c.76-.424 1.467-.911 1.974-1.642.644-.942.644-1.937.084-2.89-.612-1.058-1.499-1.873-2.554-2.487-.497-.286-.982-.593-1.5-.826-.56-.254-1.14-.445-1.72-.625-.486-.148-.993-.233-1.478-.36a.355.355 0 01-.18-.084c-.042-.053-.042-.127-.063-.19.063-.012.127-.033.18-.022.242.032.474.074.717.106.296.042.58.074.876.116.243.032.497.053.74.095.263.043.527.106.791.16.232.042.475.095.708.126.38.053.749.138 1.118.254.243.074.497.096.74.18.337.117.707.149 1.045.244.327.085.633.212.96.317.19.064.38.096.57.16.138.042.264.105.391.169.148.063.285.127.433.19.243.095.496.19.739.275.2.074.401.138.612.201.074.022.17.043.243.075.443.243.887.476 1.372.656.57.222 1.109.561 1.647.857.76.424 1.51.858 2.26 1.313.264.159.506.36.75.54.052.042.094.095.147.127.665.487 1.351.953 2.006 1.461.443.35.855.752 1.288 1.122.116.106.264.17.38.286.496.476.971.963 1.457 1.44.18.18.359.349.517.54.718.836 1.425 1.683 2.133 2.53.158.19.327.38.485.571.053.064.095.138.137.212.011.032 0 .074 0 .117-.042 0-.074-.011-.116-.022a3.095 3.095 0 01-.295-.084c.042.084.084.18.126.264.486 1.07 1.024 2.117 1.436 3.208.475 1.27.887 2.572 1.235 3.885.285 1.101.433 2.234.623 3.366.116.678.222 1.366.254 2.044.052 1.143.052 2.286.073 3.419.011.519.022 1.048-.031 1.556-.085.974-.2 1.948-.328 2.922-.02.212.074.339.212.445.337.264.686.518 1.003.804a6.42 6.42 0 011.837 2.837c.094.307.19.603.284.91.022.053.032.117.022.17-.043.201-.095.392-.127.582-.084.445-.148.89-.243 1.323-.084.413-.211.816-.306 1.218-.063.275-.116.55-.18.826-.042.18-.105.349-.158.518l-.031.064c-.106.37-.201.74-.307 1.1-.052.17-.116.329-.18.498-.03.074-.094.148-.094.233 0 .36-.18.635-.338.932-.042.074-.053.159-.074.233-.105.264-.2.529-.306.794-.095.233-.19.455-.296.688-.169.37-.327.73-.506 1.09-.127.244-.296.477-.412.72-.211.413-.401.836-.591 1.27-.222.498-.613.868-.898 1.324-.327.529-.612 1.08-.95 1.598-.2.318-.496.572-.707.879-.2.307-.38.635-.686.857-.074.053-.106.17-.17.244-.137.17-.295.338-.443.508-.02.021-.063.042-.073.063-.201.403-.57.667-.845 1.006-.042.053-.074.106-.127.159-.264.254-.538.508-.802.773-.243.243-.454.497-.707.73-.338.328-.697.635-1.056.953-.243.222-.486.444-.74.656-.263.222-.538.445-.812.646-.496.37-.982.752-1.5 1.09-.685.466-1.372.921-2.068 1.355-.38.233-.782.413-1.172.614-.708.37-1.404.763-2.112 1.123-.253.127-.549.2-.813.317-.285.117-.559.254-.844.381a1.253 1.253 0 01-.211.085c-.2.063-.401.116-.591.19-.37.138-.74.318-1.12.434-.316.106-.643.16-.96.244-.349.095-.686.201-1.035.286-.422.106-.844.2-1.256.307-.306.074-.602.18-.908.254-.148.042-.317.053-.465.074-.643.095-1.298.201-1.942.275-.739.085-1.488.17-2.227.212a59.478 59.478 0 01-3.083.106c-.486.01-.982-.064-1.478-.106-.496-.042-.993-.064-1.478-.127-.444-.053-.887-.138-1.341-.201-.2-.032-.412-.053-.612-.085-.37-.074-.74-.17-1.109-.233-.274-.053-.549-.063-.823-.095-.074-.01-.138-.053-.211-.074-.37-.096-.74-.18-1.12-.265-.02-.01-.052 0-.073 0-.317-.106-.634-.212-.961-.307-.169-.053-.348-.085-.517-.138-.137-.052-.275-.126-.412-.18-.137-.052-.285-.084-.422-.127-.127-.042-.264-.063-.37-.127-.243-.126-.475-.254-.77-.275-.17-.01-.328-.159-.497-.222-.19-.085-.39-.148-.58-.212-.116-.042-.254-.053-.36-.116a9.879 9.879 0 00-1.498-.741c-.655-.265-1.267-.646-1.88-1.006a53.613 53.613 0 01-1.942-1.207 51.278 51.278 0 01-1.425-.974c-.37-.338-.781-.624-1.193-.91-.433-.297-.792-.71-1.193-1.059-.264-.243-.539-.476-.792-.72-.317-.307-.633-.614-.94-.92a65.035 65.035 0 01-1.192-1.218 15.693 15.693 0 01-.771-.9 57.685 57.685 0 01-1.425-1.852 37.955 37.955 0 01-1.151-1.737c-.401-.624-.813-1.249-1.182-1.905-.402-.72-.75-1.461-1.098-2.202-.307-.635-.581-1.28-.866-1.916-.074-.159-.116-.328-.18-.498a39.925 39.925 0 01-.485-1.471c-.232-.762-.465-1.524-.686-2.287-.095-.338-.18-.677-.243-1.027-.137-.709-.243-1.418-.412-2.117-.137-.56-.148-1.122-.19-1.694-.021-.285-.106-.56-.127-.836-.042-.593-.052-1.186-.074-1.789-.02-.508-.063-1.027-.052-1.535.01-.603.052-1.207.084-1.81.021-.37.01-.752.074-1.122.053-.244-.032-.561.264-.837zm38.069-1.08c-.042-.509-.074-.932-.127-1.345-.02-.159-.095-.307-.127-.455-.221-.932-.643-1.779-1.15-2.583a7.672 7.672 0 00-1.827-2.001c-.686-.519-1.425-.942-2.29-1.143-.74-.18-1.479-.254-2.239-.17-1.7.19-3.167.942-4.54 1.916a35.099 35.099 0 00-2.005 1.557c-.876.73-1.742 1.46-2.586 2.233-.972.9-1.911 1.832-2.861 2.753-.043.042-.053.159-.032.222a.79.79 0 00.158.254c1.362 1.588 2.713 3.197 4.107 4.764 1.066 1.196 2.175 2.35 3.283 3.504a88.368 88.368 0 002.238 2.212 737.642 737.642 0 004.192 3.95c.559.518 1.16 1.005 1.741 1.523.17.149.306.117.454-.031.264-.265.539-.519.813-.784.39-.37.782-.73 1.151-1.122.296-.317.285-.338-.021-.667-1.12-1.228-2.249-2.445-3.368-3.673-.56-.604-1.108-1.218-1.657-1.821-.117-.127-.159-.243.01-.381.634-.53 1.246-1.07 1.88-1.588.654-.54 1.34-1.059 1.995-1.61.718-.592 1.298-1.301 1.784-2.095.348-.582.644-1.186.802-1.842.148-.55.17-1.112.222-1.578zm8.952-16.07c0-.021-.01-.043-.01-.064-.77.117-1.542.201-2.302.36-.464.095-.908.296-1.351.455-.94.339-1.89.667-2.83 1.038-.823.328-1.625.709-2.438 1.08a49.11 49.11 0 00-2.122 1.026c-.486.255-.465.265-.148.752.74 1.133 1.5 2.244 2.207 3.398.95 1.556 1.879 3.123 2.787 4.7.623 1.09 1.214 2.202 1.805 3.314.56 1.048 1.108 2.107 1.636 3.176.486.974.93 1.969 1.394 2.953l.823 1.779c.085.19.18.243.39.137.413-.211.835-.38 1.257-.582.496-.233.982-.466 1.478-.688.19-.085.275-.212.2-.423-.02-.075-.03-.149-.063-.223-.316-.889-.612-1.789-.95-2.678-.411-1.09-.834-2.18-1.267-3.26a34.618 34.618 0 00-.4-.922c-.127-.306-.075-.444.232-.56.052-.022.105-.043.168-.064.602-.222 1.204-.455 1.806-.667.443-.159.908-.297 1.351-.466.528-.19 1.056-.37 1.563-.614.612-.286 1.119-.73 1.583-1.228a4.217 4.217 0 00.93-1.62 5.323 5.323 0 00.21-2.34c-.074-.528-.158-1.068-.306-1.576a9.196 9.196 0 00-.908-2.096c-.739-1.25-1.647-2.33-2.903-3.07-.443-.265-.908-.53-1.394-.678-.791-.244-1.604-.392-2.428-.35zM10.147 41.924c.032.085.042.138.063.19.116.234.233.467.37.689.855 1.429 1.678 2.89 2.586 4.287a36.79 36.79 0 003.58 4.605c1.14 1.26 2.322 2.488 3.641 3.568.95.773 1.89 1.556 2.893 2.255 1.003.688 2.09 1.27 3.136 1.895.316.19.327.18.453-.17.243-.667.486-1.334.718-2.011.021-.064-.01-.19-.063-.233-.306-.244-.633-.466-.95-.699L23.66 54.11c-.211-.159-.232-.286-.084-.519.095-.148.2-.296.274-.444.74-1.44 1.605-2.816 2.534-4.14.042-.053.148-.105.2-.095.275.085.539.19.803.297l1.773.698c.655.254 1.32.487 1.964.762.232.096.37.085.517-.105.043-.064.106-.106.148-.17.56-.667 1.109-1.344 1.668-2.011.148-.18.127-.286-.095-.381-.992-.445-1.985-.89-2.977-1.345-.454-.2-.887-.423-1.34-.624-.814-.36-1.627-.699-2.44-1.059-1.045-.466-2.09-.942-3.135-1.419-1.003-.455-2.006-.931-3.009-1.386-1.108-.508-2.227-1.006-3.336-1.514-.221-.106-.433-.233-.644-.339-.75-.37-1.499-.73-2.248-1.111-.539-.276-1.067-.572-1.595-.858-.137-.074-.253-.074-.348.064-.158.222-.327.423-.464.656-.518.847-1.035 1.704-1.542 2.562-.053.095-.095.212-.137.296zM8.606 13.543c.063.38.074.677.158.963.232.794.465 1.599.76 2.371.338.879.729 1.736 1.162 2.573a42.717 42.717 0 002.523 4.298c.633.953 1.288 1.884 1.932 2.826.116.17.2.159.337.032.465-.466.93-.942 1.405-1.397a75.535 75.535 0 011.646-1.514c1.098-.953 2.186-1.927 3.315-2.837 1.151-.921 2.365-1.768 3.547-2.647.17-.127.338-.243.518-.36.401-.275.792-.56 1.203-.825.539-.36 1.088-.7 1.616-1.06.242-.158.253-.232.084-.454l-1.9-2.414c-.095-.116-.18-.116-.306-.042-.528.328-1.067.645-1.573.995a143.56 143.56 0 00-2.925 2.032c-.75.54-1.499 1.08-2.206 1.652-.993.804-1.964 1.651-2.946 2.477-.168.148-.221.138-.348-.053l-1.964-2.985c-.18-.265-.19-.328.053-.53.919-.783 1.826-1.577 2.766-2.329.729-.582 1.5-1.132 2.26-1.672a158.57 158.57 0 013.072-2.139c.168-.116.168-.2.042-.338-.37-.403-.729-.816-1.098-1.207-.37-.381-.39-.392-.824-.095a117.125 117.125 0 00-3.019 2.074c-.644.456-1.256.953-1.869 1.44a65.048 65.048 0 00-1.858 1.535c-.264.223-.517.455-.78.678-.106.084-.233.169-.328-.01-.317-.615-.634-1.24-.95-1.864-.095-.18-.064-.339.095-.476.274-.233.538-.477.813-.71.612-.508 1.214-1.027 1.847-1.514.57-.444 1.172-.868 1.763-1.291.602-.424 1.204-.847 1.805-1.26.528-.36 1.067-.72 1.605-1.08.169-.116.158-.211.01-.328-.284-.212-.58-.423-.865-.646-.2-.158-.39-.148-.591 0-.782.53-1.594 1.027-2.355 1.578-1.171.857-2.333 1.715-3.452 2.636-1.024.847-1.984 1.768-2.977 2.668-.285.253-.57.518-.834.793-.169.138-.274.329-.37.456zm44.857-1.144v.022c-.053 0-.106-.011-.148 0-.105.02-.2.042-.295.063.031.095.052.19.094.275.993 1.758 1.88 3.557 2.619 5.442.338.868.675 1.736.96 2.625.317.953.581 1.927.845 2.89.232.868.475 1.736.644 2.615.211 1.08.359 2.17.549 3.25.243 1.387.338 2.795.433 4.202.01.212.074.286.306.276 1.203-.043 2.407.031 3.59.296.643.148 1.266.37 1.889.572.327.106.422.063.454-.286l.222-3.26c.02-.392-.01-.466-.38-.604a25.448 25.448 0 00-1.985-.635c-.454-.117-.94-.159-1.404-.223-.19-.02-.264-.127-.285-.296l-.254-2.149c-.042-.413-.063-.826-.137-1.228a43.551 43.551 0 00-.464-2.34c-.222-.995-.423-2-.718-2.985a62.223 62.223 0 00-1.246-3.663c-.549-1.535-1.288-2.985-2.059-4.425-.148-.275-.316-.465-.696-.444-.845.032-1.69.01-2.534.01z"></path>
  <path fill="#E4E4E4" d="M33.794.956c1.224-.032 2.47.254 3.653.741a8.343 8.343 0 012.27 1.419c.453.392.823.826 1.066 1.376.264.572.095 1.25-.338 1.704-.729.763-1.679 1.07-2.618 1.419-.855.318-1.71.635-2.555.963a5.32 5.32 0 00-.655.318c-.169.085-.285.032-.39-.095-.486-.53-.961-1.07-1.478-1.578a32.73 32.73 0 00-2.64-2.35 18.911 18.911 0 00-2.818-1.831c-.095-.053-.233-.18-.222-.254.01-.085.148-.201.253-.233a56.753 56.753 0 011.88-.688c.601-.201 1.192-.413 1.805-.572a11.824 11.824 0 012.787-.339zM5.47 22.584c-.021.868-.2 1.62-.58 2.318-.423.762-.93 1.493-1.373 2.255-.412.71-.77 1.45-1.161 2.17-.032.064-.106.106-.159.159-.063-.074-.18-.138-.19-.233-.074-.381-.126-.762-.19-1.143-.137-.858-.274-1.705-.221-2.573.01-.201.073-.413.158-.593.264-.54.528-1.069.823-1.577.307-.519.634-1.016.982-1.514.222-.317.465-.614.718-.9.074-.084.211-.137.306-.2.18-.117.306-.043.433.105.243.286.317.646.38.995.042.265.053.54.074.73zM68.327 32.196c.01-1.122.032-2.244.021-3.366 0-.403-.063-.805-.084-1.207 0-.085.042-.17.063-.254.074.042.148.084.211.148.159.17.306.35.454.54.275.35.507.709.517 1.196.011.455.106.91.19 1.355.18.942.148 1.895.212 2.837.031.413.052.836.084 1.25 0 .063.01.137 0 .2-.01.032-.042.064-.063.106-.032-.032-.085-.053-.095-.095-.317-.868-.813-1.62-1.436-2.308-.084-.106-.116-.392-.074-.402zM67.324 22.075c.032-.063.19-.095.211-.031.085.18.148.37.222.55.18.476.349.953.517 1.43.022.052-.01.116-.01.18-.053-.022-.106-.032-.148-.075-.222-.222-.39-.466-.443-.794-.053-.339-.18-.656-.275-.984-.021-.085-.042-.18-.074-.276zM33.932 30.163c.011.879-.432 1.567-1.002 2.139-.56.571-1.215 1.048-1.827 1.566-.475.403-.96.816-1.436 1.218-.147.127-.295.275-.443.402-.116.095-.232.085-.327-.042-1.33-1.599-2.65-3.197-3.98-4.806-.349-.424-.338-.413.095-.763.56-.444 1.087-.92 1.636-1.365.93-.741 1.858-1.461 2.967-1.916.876-.35 1.995-.37 2.776.465.602.646 1.077 1.355 1.394 2.16.116.307.105.635.148.942zM51.509 21.017c.01 1.037-.317 1.609-.96 2.075-.613.434-1.31.614-1.986.879-.718.275-1.435.54-2.164.804-.105.042-.2.085-.306.127-.306.116-.359.064-.496-.243-.254-.55-.517-1.09-.803-1.62-.696-1.302-1.404-2.594-2.111-3.885-.148-.276-.148-.286.148-.392.654-.243 1.288-.508 1.953-.73.908-.297 1.784-.678 2.755-.741.433-.032.887-.075 1.299.031a2.68 2.68 0 011.436.868c.411.477.686 1.038.897 1.62.158.477.264.963.338 1.207zM20.576 51.198c-.084-.063-.147-.106-.19-.159-.929-1.09-1.89-2.148-2.776-3.27-.75-.953-1.415-1.98-2.111-2.975-.117-.17-.254-.34-.37-.508-.032-.053-.032-.117-.053-.18.074 0 .148-.011.211.01 1.056.477 2.101.964 3.146 1.44.718.328 1.425.677 2.143.974.655.275 1.32.508 1.985.762.222.085.275.212.148.423-.591.943-1.172 1.895-1.753 2.848-.084.138-.137.307-.221.455-.032.053-.095.106-.159.18z"></path>
  <path fill="#E4E4E4" d="M.424 30.82c.042.38.053.709.116 1.026.148.826.285 1.652.496 2.467.37 1.482.919 2.91 1.594 4.287a27.252 27.252 0 002.07 3.568c.052.074.126.116.2.17.053-.075.127-.128.159-.213.422-.963.844-1.937 1.266-2.91.106-.244.074-.435-.063-.657-.612-.985-1.235-1.98-1.805-2.986-.37-.645-.676-1.333-1.003-2a12.15 12.15 0 01-.486-1.154c-.042-.117-.01-.286.042-.402.37-.71.729-1.43 1.162-2.086.464-.72.834-1.524 1.499-2.107.222-.2.433-.402.75-.465a.679.679 0 01.538.095c.865.519 1.446 1.302 2.027 2.107.422.592.887 1.153 1.34 1.725.074.095.18.18.275.254.338.244.38.233.654-.095.824-.995 1.658-2 2.492-2.996.106-.127.18-.244-.01-.35-.676-.37-1.151-.941-1.616-1.524-.507-.635-.971-1.302-1.488-1.937-.433-.54-.93-.995-1.605-1.207a1.825 1.825 0 00-1.52.148.477.477 0 01-.232.085c-.148.01-.222-.064-.17-.222.011-.043.032-.074.053-.117.55-1.111.75-2.297.877-3.514.052-.572-.021-1.133-.138-1.673-.126-.561-.411-1.048-1.013-1.26-.285-.095-.57-.053-.824.053-.57.233-.94.71-1.32 1.165-.136.17-.242.36-.38.529-.03.042-.105.064-.158.085 0-.064-.02-.138 0-.19.148-.297.307-.594.475-.89.476-.826.94-1.641 1.426-2.456.137-.233.327-.424.485-.635l.602-.858c.01-.01.01-.031.021-.042.38-.445.76-.89 1.13-1.334.01-.01.02-.021.042-.032.296-.36.591-.709.887-1.069l.126-.159c.613-.593 1.225-1.196 1.837-1.789.37-.35.718-.72 1.109-1.037.686-.55 1.393-1.08 2.1-1.61.254-.19.518-.38.771-.55.338-.233.687-.444 1.024-.667.412-.264.824-.54 1.236-.794.169-.106.348-.19.527-.286.497-.254.993-.497 1.49-.762.274-.137.538-.296.812-.444.032-.022.074-.053.116-.053.58-.096 1.045-.466 1.584-.667.433-.159.876-.307 1.32-.466.137-.053.274-.116.411-.17.042-.02.084-.052.137-.063.961-.17 1.869-.572 2.819-.783.274-.064.538-.117.802-.233.285-.117.623-.106.93-.159.084-.01.158-.032.242-.042.053-.01.106 0 .159 0-.021.042-.032.095-.074.127A.443.443 0 0128.6.69c-.232.074-.465.127-.686.212-.697.243-1.404.487-2.09.762a39.44 39.44 0 00-2.08.879c-.687.317-1.362.677-2.038 1.026-.053.022-.116.096-.105.149 0 .053.073.095.126.127.507.328 1.024.635 1.51.984.507.36 1.003.73 1.478 1.133A37.69 37.69 0 0126.5 7.625c.633.625 1.256 1.26 1.848 1.916.844.942 1.646 1.916 2.46 2.89.38.445.738.91 1.097 1.376.116.149.233.19.412.096.57-.307 1.14-.614 1.72-.89 1.014-.476 2.038-.942 3.062-1.386a75.85 75.85 0 012.703-1.09c.612-.234 1.256-.424 1.869-.668a15.506 15.506 0 001.594-.74c.76-.424 1.467-.911 1.974-1.642.644-.942.644-1.937.084-2.89-.612-1.058-1.499-1.873-2.554-2.487-.497-.286-.982-.593-1.5-.826-.56-.254-1.14-.445-1.72-.625-.486-.148-.993-.233-1.478-.36a.355.355 0 01-.18-.084c-.042-.053-.042-.127-.063-.19.063-.012.127-.033.18-.022.242.032.474.074.717.106.296.042.58.074.876.116.243.032.497.053.74.095.263.043.527.106.791.16.232.042.475.095.708.126.38.053.749.138 1.118.254.243.074.497.096.74.18.337.117.707.149 1.045.244.327.085.633.212.96.317.19.064.38.096.57.16.138.042.264.105.391.169.148.063.285.127.433.19.243.095.496.19.739.275.2.074.401.138.612.201.074.022.17.043.243.075.443.243.887.476 1.372.656.57.222 1.109.561 1.647.857.76.424 1.51.858 2.26 1.313.264.159.506.36.75.54.052.042.094.095.147.127.665.487 1.351.953 2.006 1.461.443.35.855.752 1.288 1.122.116.106.264.17.38.286.496.476.971.963 1.457 1.44.18.18.359.349.517.54.718.836 1.425 1.683 2.133 2.53.158.19.327.38.485.571.053.064.095.138.137.212.011.032 0 .074 0 .117-.042 0-.074-.011-.116-.022a3.095 3.095 0 01-.295-.084c.042.084.084.18.126.264.486 1.07 1.024 2.117 1.436 3.208.475 1.27.887 2.572 1.235 3.885.285 1.101.433 2.234.623 3.366.116.678.222 1.366.254 2.044.052 1.143.052 2.286.073 3.419.011.519.022 1.048-.031 1.556-.085.974-.2 1.948-.328 2.922-.02.212.074.339.212.445.337.264.686.518 1.003.804a6.42 6.42 0 011.837 2.837c.094.307.19.603.284.91.022.053.032.117.022.17-.043.201-.095.392-.127.582-.084.445-.148.89-.243 1.323-.084.413-.211.816-.306 1.218-.063.275-.116.55-.18.826-.042.18-.105.349-.158.518l-.031.064c-.106.37-.201.74-.307 1.1-.052.17-.116.329-.18.498-.03.074-.094.148-.094.233 0 .36-.18.635-.338.932-.042.074-.053.159-.074.233-.105.264-.2.529-.306.794-.095.233-.19.455-.296.688-.169.37-.327.73-.506 1.09-.127.244-.296.477-.412.72-.211.413-.401.836-.591 1.27-.222.498-.613.868-.898 1.324-.327.529-.612 1.08-.95 1.598-.2.318-.496.572-.707.879-.2.307-.38.635-.686.857-.074.053-.106.17-.17.244-.137.17-.295.338-.443.508-.02.021-.063.042-.073.063-.201.403-.57.667-.845 1.006-.042.053-.074.106-.127.159-.264.254-.538.508-.802.773-.243.243-.454.497-.707.73-.338.328-.697.635-1.056.953-.243.222-.486.444-.74.656-.263.222-.538.445-.812.646-.496.37-.982.752-1.5 1.09-.685.466-1.372.921-2.068 1.355-.38.233-.782.413-1.172.614-.708.37-1.404.763-2.112 1.123-.253.127-.549.2-.813.317-.285.117-.559.254-.844.381a1.253 1.253 0 01-.211.085c-.2.063-.401.116-.591.19-.37.138-.74.318-1.12.434-.316.106-.643.16-.96.244-.349.095-.686.201-1.035.286-.422.106-.844.2-1.256.307-.306.074-.602.18-.908.254-.148.042-.317.053-.465.074-.643.095-1.298.201-1.942.275-.739.085-1.488.17-2.227.212a59.478 59.478 0 01-3.083.106c-.486.01-.982-.064-1.478-.106-.496-.042-.993-.064-1.478-.127-.444-.053-.887-.138-1.341-.201-.2-.032-.412-.053-.612-.085-.37-.074-.74-.17-1.109-.233-.274-.053-.549-.063-.823-.095-.074-.01-.138-.053-.211-.074-.37-.096-.74-.18-1.12-.265-.02-.01-.052 0-.073 0-.317-.106-.634-.212-.961-.307-.169-.053-.348-.085-.517-.138-.137-.052-.275-.126-.412-.18-.137-.052-.285-.084-.422-.127-.127-.042-.264-.063-.37-.127-.243-.126-.475-.254-.77-.275-.17-.01-.328-.159-.497-.222-.19-.085-.39-.148-.58-.212-.116-.042-.254-.053-.36-.116a9.879 9.879 0 00-1.498-.741c-.655-.265-1.267-.646-1.88-1.006a53.613 53.613 0 01-1.942-1.207 51.278 51.278 0 01-1.425-.974c-.37-.338-.781-.624-1.193-.91-.433-.297-.792-.71-1.193-1.059-.264-.243-.539-.476-.792-.72-.317-.307-.633-.614-.94-.92a65.035 65.035 0 01-1.192-1.218 15.693 15.693 0 01-.771-.9 57.685 57.685 0 01-1.425-1.852 37.955 37.955 0 01-1.151-1.737c-.401-.624-.813-1.249-1.182-1.905-.402-.72-.75-1.461-1.098-2.202-.307-.635-.581-1.28-.866-1.916-.074-.159-.116-.328-.18-.498a39.925 39.925 0 01-.485-1.471c-.232-.762-.465-1.524-.686-2.287-.095-.338-.18-.677-.243-1.027-.137-.709-.243-1.418-.412-2.117-.137-.56-.148-1.122-.19-1.694-.021-.285-.106-.56-.127-.836-.042-.593-.052-1.186-.074-1.789-.02-.508-.063-1.027-.052-1.535.01-.603.052-1.207.084-1.81.021-.37.01-.752.074-1.122.053-.244-.032-.561.264-.837zm38.069-1.08c-.042-.509-.074-.932-.127-1.345-.02-.159-.095-.307-.127-.455-.221-.932-.643-1.779-1.15-2.583a7.672 7.672 0 00-1.827-2.001c-.686-.519-1.425-.942-2.29-1.143-.74-.18-1.479-.254-2.239-.17-1.7.19-3.167.942-4.54 1.916a35.099 35.099 0 00-2.005 1.557c-.876.73-1.742 1.46-2.586 2.233-.972.9-1.911 1.832-2.861 2.753-.043.042-.053.159-.032.222a.79.79 0 00.158.254c1.362 1.588 2.713 3.197 4.107 4.764 1.066 1.196 2.175 2.35 3.283 3.504a88.368 88.368 0 002.238 2.212 737.642 737.642 0 004.192 3.95c.559.518 1.16 1.005 1.741 1.523.17.149.306.117.454-.031.264-.265.539-.519.813-.784.39-.37.782-.73 1.151-1.122.296-.317.285-.338-.021-.667-1.12-1.228-2.249-2.445-3.368-3.673-.56-.604-1.108-1.218-1.657-1.821-.117-.127-.159-.243.01-.381.634-.53 1.246-1.07 1.88-1.588.654-.54 1.34-1.059 1.995-1.61.718-.592 1.298-1.301 1.784-2.095.348-.582.644-1.186.802-1.842.148-.55.17-1.112.222-1.578zm8.952-16.07c0-.021-.01-.043-.01-.064-.77.117-1.542.201-2.302.36-.464.095-.908.296-1.351.455-.94.339-1.89.667-2.83 1.038-.823.328-1.625.709-2.438 1.08a49.11 49.11 0 00-2.122 1.026c-.486.255-.465.265-.148.752.74 1.133 1.5 2.244 2.207 3.398.95 1.556 1.879 3.123 2.787 4.7.623 1.09 1.214 2.202 1.805 3.314.56 1.048 1.108 2.107 1.636 3.176.486.974.93 1.969 1.394 2.953l.823 1.779c.085.19.18.243.39.137.413-.211.835-.38 1.257-.582.496-.233.982-.466 1.478-.688.19-.085.275-.212.2-.423-.02-.075-.03-.149-.063-.223-.316-.889-.612-1.789-.95-2.678-.411-1.09-.834-2.18-1.267-3.26a34.618 34.618 0 00-.4-.922c-.127-.306-.075-.444.232-.56.052-.022.105-.043.168-.064.602-.222 1.204-.455 1.806-.667.443-.159.908-.297 1.351-.466.528-.19 1.056-.37 1.563-.614.612-.286 1.119-.73 1.583-1.228a4.217 4.217 0 00.93-1.62 5.323 5.323 0 00.21-2.34c-.074-.528-.158-1.068-.306-1.576a9.196 9.196 0 00-.908-2.096c-.739-1.25-1.647-2.33-2.903-3.07-.443-.265-.908-.53-1.394-.678-.791-.244-1.604-.392-2.428-.35zM10.147 41.924c.032.085.042.138.063.19.116.234.233.467.37.689.855 1.429 1.678 2.89 2.586 4.287a36.79 36.79 0 003.58 4.605c1.14 1.26 2.322 2.488 3.641 3.568.95.773 1.89 1.556 2.893 2.255 1.003.688 2.09 1.27 3.136 1.895.316.19.327.18.453-.17.243-.667.486-1.334.718-2.011.021-.064-.01-.19-.063-.233-.306-.244-.633-.466-.95-.699L23.66 54.11c-.211-.159-.232-.286-.084-.519.095-.148.2-.296.274-.444.74-1.44 1.605-2.816 2.534-4.14.042-.053.148-.105.2-.095.275.085.539.19.803.297l1.773.698c.655.254 1.32.487 1.964.762.232.096.37.085.517-.105.043-.064.106-.106.148-.17.56-.667 1.109-1.344 1.668-2.011.148-.18.127-.286-.095-.381-.992-.445-1.985-.89-2.977-1.345-.454-.2-.887-.423-1.34-.624-.814-.36-1.627-.699-2.44-1.059-1.045-.466-2.09-.942-3.135-1.419-1.003-.455-2.006-.931-3.009-1.386-1.108-.508-2.227-1.006-3.336-1.514-.221-.106-.433-.233-.644-.339-.75-.37-1.499-.73-2.248-1.111-.539-.276-1.067-.572-1.595-.858-.137-.074-.253-.074-.348.064-.158.222-.327.423-.464.656-.518.847-1.035 1.704-1.542 2.562-.053.095-.095.212-.137.296zM8.606 13.543c.063.38.074.677.158.963.232.794.465 1.599.76 2.371.338.879.729 1.736 1.162 2.573a42.717 42.717 0 002.523 4.298c.633.953 1.288 1.884 1.932 2.826.116.17.2.159.337.032.465-.466.93-.942 1.405-1.397a75.535 75.535 0 011.646-1.514c1.098-.953 2.186-1.927 3.315-2.837 1.151-.921 2.365-1.768 3.547-2.647.17-.127.338-.243.518-.36.401-.275.792-.56 1.203-.825.539-.36 1.088-.7 1.616-1.06.242-.158.253-.232.084-.454l-1.9-2.414c-.095-.116-.18-.116-.306-.042-.528.328-1.067.645-1.573.995a143.56 143.56 0 00-2.925 2.032c-.75.54-1.499 1.08-2.206 1.652-.993.804-1.964 1.651-2.946 2.477-.168.148-.221.138-.348-.053l-1.964-2.985c-.18-.265-.19-.328.053-.53.919-.783 1.826-1.577 2.766-2.329.729-.582 1.5-1.132 2.26-1.672a158.57 158.57 0 013.072-2.139c.168-.116.168-.2.042-.338-.37-.403-.729-.816-1.098-1.207-.37-.381-.39-.392-.824-.095a117.125 117.125 0 00-3.019 2.074c-.644.456-1.256.953-1.869 1.44a65.048 65.048 0 00-1.858 1.535c-.264.223-.517.455-.78.678-.106.084-.233.169-.328-.01-.317-.615-.634-1.24-.95-1.864-.095-.18-.064-.339.095-.476.274-.233.538-.477.813-.71.612-.508 1.214-1.027 1.847-1.514.57-.444 1.172-.868 1.763-1.291.602-.424 1.204-.847 1.805-1.26.528-.36 1.067-.72 1.605-1.08.169-.116.158-.211.01-.328-.284-.212-.58-.423-.865-.646-.2-.158-.39-.148-.591 0-.782.53-1.594 1.027-2.355 1.578-1.171.857-2.333 1.715-3.452 2.636-1.024.847-1.984 1.768-2.977 2.668-.285.253-.57.518-.834.793-.169.138-.274.329-.37.456zm44.857-1.144v.022c-.053 0-.106-.011-.148 0-.105.02-.2.042-.295.063.031.095.052.19.094.275.993 1.758 1.88 3.557 2.619 5.442.338.868.675 1.736.96 2.625.317.953.581 1.927.845 2.89.232.868.475 1.736.644 2.615.211 1.08.359 2.17.549 3.25.243 1.387.338 2.795.433 4.202.01.212.074.286.306.276 1.203-.043 2.407.031 3.59.296.643.148 1.266.37 1.889.572.327.106.422.063.454-.286l.222-3.26c.02-.392-.01-.466-.38-.604a25.448 25.448 0 00-1.985-.635c-.454-.117-.94-.159-1.404-.223-.19-.02-.264-.127-.285-.296l-.254-2.149c-.042-.413-.063-.826-.137-1.228a43.551 43.551 0 00-.464-2.34c-.222-.995-.423-2-.718-2.985a62.223 62.223 0 00-1.246-3.663c-.549-1.535-1.288-2.985-2.059-4.425-.148-.275-.316-.465-.696-.444-.845.032-1.69.01-2.534.01z"></path>
</svg>
