<?xml version="1.0" encoding="UTF-8"?>
<svg xmlns="http://www.w3.org/2000/svg" width="70" height="70" fill="none" viewBox="0 0 70 70">
  <path fill="#E4E4E4" d="M35 0L0 35l35 35 35-35L35 0zm13.413 18.501l-2.8 2.8L34.88 10.568l-9.183 9.182 2.378 2.379 6.79-6.79 8.354 8.356-8.415 8.415-13.428-13.413L35 5.073l13.413 13.428zm-29.566 2.725L32.26 34.639l-8.61 8.61-8.355-8.354 6.97-6.97-2.379-2.379-9.348 9.364L21.27 45.643l-2.785 2.785L5.073 35.015l13.774-13.79zm2.183 29.731l2.785-2.785 11.23 11.23 24.01-24.01h-17.01l-3.342 3.371h12.209L35.045 54.645l-8.851-8.851L50.957 21.03 64.927 35 35 64.927l-13.97-13.97z"></path>
</svg>
